<?xml version="1.0" encoding="UTF-8" standalone="no"?>
<svg
   viewBox="0 0 40 40"
   width="80px"
   height="80px"
   version="1.1"
   id="svg5"
   sodipodi:docname="close.svg"
   inkscape:version="1.3.2 (1:1.3.2+202311252150+091e20ef0f)"
   xmlns:inkscape="http://www.inkscape.org/namespaces/inkscape"
   xmlns:sodipodi="http://sodipodi.sourceforge.net/DTD/sodipodi-0.dtd"
   xmlns="http://www.w3.org/2000/svg"
   xmlns:svg="http://www.w3.org/2000/svg">
  <defs
     id="defs5" />
  <sodipodi:namedview
     id="namedview5"
     pagecolor="#ffffff"
     bordercolor="#000000"
     borderopacity="0.25"
     inkscape:showpageshadow="2"
     inkscape:pageopacity="0.0"
     inkscape:pagecheckerboard="0"
     inkscape:deskcolor="#d1d1d1"
     showgrid="false"
     inkscape:zoom="7.45"
     inkscape:cx="40"
     inkscape:cy="40"
     inkscape:window-width="1600"
     inkscape:window-height="792"
     inkscape:window-x="0"
     inkscape:window-y="0"
     inkscape:window-maximized="1"
     inkscape:current-layer="svg5" />
  <path
     fill="#98ccfd"
     d="M20,38.5C9.799,38.5,1.5,30.201,1.5,20S9.799,1.5,20,1.5S38.5,9.799,38.5,20S30.201,38.5,20,38.5z"
     id="path1"
     style="fill:#0044aa" />
  <path
     fill="#4788c7"
     d="M20,2c9.925,0,18,8.075,18,18s-8.075,18-18,18S2,29.925,2,20S10.075,2,20,2 M20,1 C9.507,1,1,9.507,1,20s8.507,19,19,19s19-8.507,19-19S30.493,1,20,1L20,1z"
     id="path2" />
  <path
     fill="#fff"
     d="M18.5 10H21.5V30H18.5z"
     transform="rotate(-134.999 20 20)"
     id="path3" />
  <path
     fill="#fff"
     d="M18.5 10H21.5V30H18.5z"
     transform="rotate(-45.001 20 20)"
     id="path4" />
  <g
     id="g5">
    <path
       fill="#fff"
       d="M28.132 13.99L26.01 11.868 20 17.879 13.99 11.868 11.868 13.99 17.879 20 11.868 26.01 13.99 28.132 20 22.121 26.01 28.132 28.132 26.01 22.121 20z"
       id="path5" />
  </g>
</svg>
